<svg width="1556" height="777" xmlns="http://www.w3.org/2000/svg" xmlns:xlink="http://www.w3.org/1999/xlink" overflow="hidden"><defs><clipPath id="clip0"><rect x="14" y="878" width="1556" height="777"/></clipPath><clipPath id="clip1"><rect x="15" y="879" width="1552" height="774"/></clipPath><clipPath id="clip2"><rect x="15" y="879" width="1552" height="774"/></clipPath><clipPath id="clip3"><rect x="125" y="929" width="1395" height="516"/></clipPath><clipPath id="clip4"><rect x="125" y="929" width="1395" height="516"/></clipPath><clipPath id="clip5"><rect x="15" y="879" width="1552" height="774"/></clipPath><clipPath id="clip6"><rect x="15" y="879" width="1552" height="774"/></clipPath><clipPath id="clip7"><rect x="15" y="879" width="1552" height="774"/></clipPath><clipPath id="clip8"><rect x="15" y="879" width="1552" height="774"/></clipPath><clipPath id="clip9"><rect x="15" y="879" width="1552" height="774"/></clipPath><clipPath id="clip10"><rect x="15" y="879" width="1552" height="774"/></clipPath><clipPath id="clip11"><rect x="15" y="879" width="1552" height="774"/></clipPath><clipPath id="clip12"><rect x="15" y="879" width="1552" height="774"/></clipPath><clipPath id="clip13"><rect x="15" y="879" width="1552" height="774"/></clipPath><clipPath id="clip14"><rect x="15" y="879" width="1552" height="774"/></clipPath><clipPath id="clip15"><rect x="15" y="879" width="1552" height="774"/></clipPath><clipPath id="clip16"><rect x="15" y="879" width="1552" height="774"/></clipPath><clipPath id="clip17"><rect x="15" y="879" width="1552" height="774"/></clipPath><clipPath id="clip18"><rect x="15" y="879" width="1552" height="774"/></clipPath><clipPath id="clip19"><rect x="15" y="879" width="1552" height="774"/></clipPath><clipPath id="clip20"><rect x="15" y="879" width="1552" height="774"/></clipPath></defs><g clip-path="url(#clip0)" transform="translate(-14 -878)"><rect x="15.0001" y="879" width="1553" height="774" fill="#FFFFFF"/><g clip-path="url(#clip1)"><path d="M125.5 1314.54 1517.5 1314.54M125.5 1185.54 1517.5 1185.54M125.5 1057.53 1517.5 1057.53M125.5 929.5 1517.5 929.5" stroke="#D9D9D9" stroke-width="3.4375" stroke-linejoin="round" stroke-miterlimit="10" fill="none"/></g><g clip-path="url(#clip2)"><path d="M125.5 1442.5 1517.5 1442.5" stroke="#D9D9D9" stroke-width="3.4375" stroke-linejoin="round" stroke-miterlimit="10" fill="none" fill-rule="evenodd"/></g><g clip-path="url(#clip3)"><path d="M225 1314.04 424.014 1314.04 622.02 1237 821.027 1340 1020.03 1340 1219.04 1288.04 1418 1263.04" stroke="#4472C4" stroke-width="10.3125" stroke-linecap="round" stroke-linejoin="round" stroke-miterlimit="10" fill="none"/></g><g clip-path="url(#clip4)"><path d="M225 1212 424.014 1109.04 622.02 1083.04 821.027 1160.04 1020.03 1135.04 1219.04 1212 1418 955" stroke="#ED7D31" stroke-width="10.3125" stroke-linecap="round" stroke-linejoin="round" stroke-miterlimit="10" fill="none"/></g><g clip-path="url(#clip5)"><text fill="#595959" font-family="Calibri,Calibri_MSFontService,sans-serif" font-weight="400" font-size="41" transform="matrix(1 0 0 1 66.1606 1454)">0</text></g><g clip-path="url(#clip6)"><text fill="#595959" font-family="Calibri,Calibri_MSFontService,sans-serif" font-weight="400" font-size="41" transform="matrix(1 0 0 1 66.1606 1326)">5</text></g><g clip-path="url(#clip7)"><text fill="#595959" font-family="Calibri,Calibri_MSFontService,sans-serif" font-weight="400" font-size="41" transform="matrix(1 0 0 1 45.2606 1197)">10</text></g><g clip-path="url(#clip8)"><text fill="#595959" font-family="Calibri,Calibri_MSFontService,sans-serif" font-weight="400" font-size="41" transform="matrix(1 0 0 1 45.2606 1069)">15</text></g><g clip-path="url(#clip9)"><text fill="#595959" font-family="Calibri,Calibri_MSFontService,sans-serif" font-weight="400" font-size="41" transform="matrix(1 0 0 1 45.2606 941)">20</text></g><g clip-path="url(#clip10)"><text fill="#595959" font-family="Calibri,Calibri_MSFontService,sans-serif" font-weight="400" font-size="41" transform="matrix(1 0 0 1 203.839 1507)">25</text></g><g clip-path="url(#clip11)"><text fill="#595959" font-family="Calibri,Calibri_MSFontService,sans-serif" font-weight="400" font-size="41" transform="matrix(1 0 0 1 402.661 1507)">26</text></g><g clip-path="url(#clip12)"><text fill="#595959" font-family="Calibri,Calibri_MSFontService,sans-serif" font-weight="400" font-size="41" transform="matrix(1 0 0 1 601.483 1507)">27</text></g><g clip-path="url(#clip13)"><text fill="#595959" font-family="Calibri,Calibri_MSFontService,sans-serif" font-weight="400" font-size="41" transform="matrix(1 0 0 1 800.306 1507)">28</text></g><g clip-path="url(#clip14)"><text fill="#595959" font-family="Calibri,Calibri_MSFontService,sans-serif" font-weight="400" font-size="41" transform="matrix(1 0 0 1 999.128 1507)">29</text></g><g clip-path="url(#clip15)"><text fill="#595959" font-family="Calibri,Calibri_MSFontService,sans-serif" font-weight="400" font-size="41" transform="matrix(1 0 0 1 1197.95 1507)">30</text></g><g clip-path="url(#clip16)"><text fill="#595959" font-family="Calibri,Calibri_MSFontService,sans-serif" font-weight="400" font-size="41" transform="matrix(1 0 0 1 1396.77 1507)">31</text></g><g clip-path="url(#clip17)"><path d="M601 1587 689 1587" stroke="#4472C4" stroke-width="10.3125" stroke-linecap="round" stroke-linejoin="round" stroke-miterlimit="10" fill="none" fill-rule="evenodd"/></g><g clip-path="url(#clip18)"><text fill="#595959" font-family="Yu Gothic,Yu Gothic_MSFontService,sans-serif" font-weight="400" font-size="41" transform="matrix(1 0 0 1 697.87 1599)">最低</text></g><g clip-path="url(#clip19)"><path d="M819 1587 907 1587" stroke="#ED7D31" stroke-width="10.3125" stroke-linecap="round" stroke-linejoin="round" stroke-miterlimit="10" fill="none" fill-rule="evenodd"/></g><g clip-path="url(#clip20)"><text fill="#595959" font-family="Yu Gothic,Yu Gothic_MSFontService,sans-serif" font-weight="400" font-size="41" transform="matrix(1 0 0 1 916.036 1599)">最高</text></g><rect x="15.5" y="879.5" width="1553" height="774" stroke="#D9D9D9" stroke-width="3.4375" stroke-linejoin="round" stroke-miterlimit="10" fill="none"/></g></svg>